<?xml version="1.0" standalone="no"?>
<!DOCTYPE svg PUBLIC "-//W3C//DTD SVG 20010904//EN"
 "http://www.w3.org/TR/2001/REC-SVG-20010904/DTD/svg10.dtd">
<svg version="1.0" xmlns="http://www.w3.org/2000/svg"
 width="384.000000pt" height="384.000000pt" viewBox="0 0 384.000000 384.000000"
 preserveAspectRatio="xMidYMid meet">
<metadata>
Created by potrace 1.11, written by Peter Selinger 2001-2013
</metadata>
<g transform="translate(0.000000,384.000000) scale(0.100000,-0.100000)"
fill="#000000" stroke="none">
<path d="M678 3712 l-128 -3 -1 -82 c-3 -460 1 -3490 4 -3493 6 -6 1988 -6
1994 -1 4 4 -15 103 -24 127 -8 19 -14 42 -15 55 -1 6 -10 12 -20 12 -10 1
-31 8 -47 16 -17 8 -35 11 -42 6 -7 -4 -17 -5 -21 -3 -4 3 -8 1 -8 -5 0 -15
-58 -43 -72 -35 -6 4 -8 3 -5 -3 7 -11 -39 -46 -60 -46 -7 0 -13 -4 -13 -8 0
-8 -8 -7 -53 6 -18 5 -26 12 -23 21 3 8 2 13 -2 13 -20 -3 -31 3 -37 21 -3 11
-10 20 -15 20 -17 0 -158 152 -162 175 -5 25 18 85 33 85 5 0 9 4 9 9 0 5 16
37 36 70 26 44 33 65 26 74 -6 6 -14 28 -19 47 -8 28 -15 36 -44 42 -19 5 -43
11 -54 14 -11 4 -69 8 -130 10 -60 2 -130 4 -155 5 -25 1 -49 0 -55 -1 -40
-10 -45 -2 -45 78 l0 79 108 -1 108 -1 1 105 c0 58 3 118 7 133 7 29 42 52 96
60 51 9 121 27 137 36 8 4 -36 7 -96 7 -61 -1 -111 3 -111 7 0 5 -5 5 -12 1
-17 -11 -178 -10 -178 0 0 6 -5 5 -11 -1 -12 -12 -49 -6 -49 9 0 5 6 6 13 2
10 -6 10 -4 0 7 -14 14 -18 128 -5 130 43 8 200 4 211 -5 10 -7 13 -7 8 0 -4
7 33 10 117 10 l123 -1 -31 50 c-37 58 -49 85 -37 85 5 0 7 8 5 18 -4 12 21
44 76 101 58 60 78 86 69 92 -7 4 -17 5 -23 2 -15 -10 -426 -9 -426 1 0 5 -6
4 -13 -3 -10 -8 -17 -7 -27 2 -10 9 -11 9 -6 -1 5 -8 0 -11 -16 -8 -13 3 -26
5 -30 5 -5 1 -8 10 -8 22 0 13 4 18 13 13 9 -6 9 -5 0 7 -12 15 -16 108 -5
110 4 1 230 3 502 4 272 2 497 3 500 4 4 1 12 17 19 36 7 19 15 35 19 35 4 1
26 5 50 9 24 5 45 5 48 0 3 -5 10 -7 15 -3 8 4 182 8 199 4 3 -1 18 -3 34 -4
31 -2 60 -32 51 -54 -2 -7 -1 -11 4 -8 13 9 20 -41 7 -55 -8 -9 -8 -10 1 -5 7
4 14 -6 18 -26 16 -80 25 -96 66 -112 55 -22 66 -20 131 22 31 20 64 42 73 47
15 9 16 50 17 423 0 227 -2 415 -5 418 -2 3 -218 4 -480 4 l-476 0 1 46 c0 25
-5 49 -11 53 -6 4 -159 7 -339 7 -180 -1 -333 3 -339 8 -8 5 -13 5 -13 -1 0
-5 -21 -9 -47 -8 l-48 2 -2 76 c-2 43 0 77 5 78 4 0 181 2 394 2 212 1 389 5
393 9 4 3 7 90 7 192 0 139 3 184 11 179 9 -5 9 -3 0 8 -7 9 -11 65 -12 158 0
79 -2 146 -5 148 -4 5 -1465 9 -1648 5z m556 -677 c31 -21 58 -87 50 -123 -15
-62 -90 -116 -122 -90 -13 10 -14 10 -8 1 12 -21 -18 -15 -55 10 -44 29 -59
61 -55 115 3 42 31 86 48 76 4 -3 7 0 6 7 -2 7 2 13 9 14 6 0 14 3 18 7 11 11
83 0 109 -17z m-5 -497 c34 -28 43 -40 45 -62 0 -13 4 -22 9 -19 4 2 7 0 7 -6
0 -5 -4 -12 -10 -16 -5 -3 -7 -12 -4 -20 7 -17 -34 -87 -46 -80 -5 3 -10 1
-12 -5 -5 -15 -88 -25 -88 -10 0 6 -4 9 -9 6 -16 -10 -73 45 -68 66 3 10 1 16
-4 13 -5 -3 -7 13 -5 36 4 45 30 87 67 107 27 14 94 8 118 -10z m1334 -32 c-4
-5 0 -6 8 -1 18 12 79 13 86 2 2 -4 10 -4 16 0 11 7 29 9 64 4 19 -2 16 -151
-3 -152 -8 -1 -20 -2 -26 -3 -7 -1 -16 3 -20 9 -5 6 -8 6 -8 0 0 -6 -26 -10
-58 -10 -45 1 -56 4 -54 15 2 13 1 13 -10 0 -15 -17 -48 -23 -48 -8 0 7 -4 7
-12 0 -14 -11 -68 -9 -88 3 -7 5 -11 4 -7 -1 6 -11 -283 -12 -301 -1 -6 5 -12
4 -12 0 0 -5 -27 -9 -60 -9 -33 0 -60 5 -60 9 0 6 -5 5 -12 0 -16 -11 -289
-10 -307 2 -9 5 -12 4 -7 -3 4 -7 -1 -10 -14 -9 -11 1 -20 5 -20 10 0 4 -6 5
-12 1 -7 -5 -24 -8 -38 -8 -23 0 -25 4 -26 50 -1 27 4 52 10 56 8 6 7 8 -1 8
-12 0 -18 31 -9 41 9 9 1034 4 1029 -5z m-1373 -456 c0 -5 6 -7 13 -5 31 12
98 -84 77 -110 -8 -9 -8 -15 0 -20 7 -4 5 -15 -6 -33 -67 -113 -234 -74 -230
53 1 49 31 102 66 114 34 13 80 13 80 1z m-7 -496 c4 -1 14 -2 21 -3 24 -2 69
-49 60 -62 -5 -8 -3 -9 6 -4 10 6 12 3 8 -13 -4 -13 -2 -20 4 -16 12 8 5 -41
-12 -77 -14 -30 -65 -63 -82 -53 -6 4 -8 3 -5 -3 4 -6 -4 -10 -18 -10 -14 0
-25 3 -25 8 0 5 -7 5 -17 2 -10 -4 -14 -2 -10 4 4 6 0 10 -9 9 -27 -2 -57 49
-60 100 -2 43 1 50 37 86 21 21 43 36 48 33 5 -3 12 -1 16 5 4 6 12 7 18 3 7
-4 15 -8 20 -9z m62 -529 c33 -31 50 -74 23 -60 -7 4 -6 1 2 -7 18 -15 18 -32
-1 -76 -8 -20 -19 -30 -27 -27 -7 2 -11 1 -8 -4 3 -5 -1 -14 -9 -21 -8 -7 -15
-9 -15 -5 0 4 -6 3 -12 -2 -19 -15 -89 -3 -115 18 -27 23 -45 70 -40 108 8 70
51 108 123 108 35 0 50 -6 79 -32z"/>
<path d="M2479 3708 c-1 -2 -2 -32 -4 -68 -1 -36 -4 -69 -5 -75 -1 -5 -1 -14
0 -20 2 -14 3 -128 0 -140 -1 -5 -1 -12 0 -15 6 -15 5 -127 -2 -141 -4 -9 -4
-19 -1 -23 6 -5 8 -118 3 -141 -1 -5 -1 -13 0 -17 8 -25 3 -148 -5 -148 -5 0
-1 -6 10 -12 14 -9 127 -13 405 -13 212 -1 391 1 398 3 24 8 10 29 -87 126
-55 55 -97 104 -94 110 3 6 2 7 -2 3 -12 -10 -286 263 -278 277 3 6 2 7 -2 3
-11 -10 -206 183 -198 196 3 6 2 7 -4 4 -5 -3 -32 16 -58 43 -41 42 -71 60
-76 48z"/>
<path d="M2683 1938 c-4 -7 -9 -24 -10 -38 -5 -54 -33 -144 -50 -162 -17 -17
-43 -26 -83 -31 -8 -1 -17 -4 -20 -7 -15 -15 -95 -50 -114 -50 -12 0 -55 20
-95 45 -40 25 -77 45 -81 45 -5 0 -10 4 -12 10 -1 5 -30 -16 -62 -47 -58 -55
-59 -58 -44 -82 8 -14 21 -37 29 -51 8 -14 17 -27 20 -30 9 -7 43 -73 44 -85
2 -23 -18 -65 -28 -58 -5 3 -7 1 -4 -4 4 -6 -3 -33 -15 -59 -24 -52 -25 -56
-27 -79 -2 -22 -62 -56 -88 -52 -13 2 -23 0 -23 -6 0 -5 -9 -7 -20 -4 -13 3
-18 1 -13 -6 4 -6 -2 -8 -15 -5 -12 4 -25 2 -28 -3 -3 -5 -14 -9 -24 -9 -21 0
-28 -38 -22 -121 l4 -45 91 -20 c50 -10 100 -27 112 -36 12 -9 28 -39 35 -65
7 -26 17 -53 22 -60 6 -7 6 -18 2 -24 -4 -7 -3 -9 3 -6 6 4 17 -12 26 -34 15
-38 15 -41 -11 -89 -14 -27 -30 -46 -36 -43 -5 3 -6 1 -2 -5 9 -14 -38 -85
-49 -74 -4 4 -3 -3 4 -15 6 -12 21 -29 33 -37 12 -9 18 -16 13 -16 -5 0 2 -8
15 -17 14 -9 29 -23 33 -30 4 -7 12 -13 16 -13 9 0 113 61 136 80 29 24 73 22
132 -6 32 -15 63 -28 69 -30 6 -1 27 -9 46 -18 39 -19 59 -49 63 -95 1 -17 5
-34 9 -38 3 -3 6 -16 6 -27 0 -12 6 -32 13 -45 11 -22 19 -24 80 -25 38 -1 73
1 78 5 10 6 23 51 35 119 3 19 10 40 15 46 5 6 7 13 4 16 -3 2 5 13 18 24 24
22 82 49 73 35 -3 -5 24 7 61 26 52 27 73 33 100 28 18 -3 33 -10 33 -16 0 -6
4 -8 9 -5 5 3 14 -1 21 -9 7 -8 18 -15 24 -15 7 0 21 -8 32 -19 42 -39 57 -35
118 25 52 52 55 58 41 74 -8 9 -15 19 -15 22 0 4 -16 30 -35 60 -19 29 -33 59
-30 66 3 7 0 10 -5 7 -19 -12 -10 33 19 96 33 74 43 98 47 119 4 18 34 41 45
34 5 -3 9 -1 9 4 0 8 25 16 90 28 84 15 89 17 82 50 -4 21 -2 25 9 19 11 -6
12 -5 2 6 -7 7 -13 19 -13 27 0 8 5 10 13 6 9 -6 9 -4 1 7 -6 8 -11 25 -12 38
-1 28 -1 29 -32 35 -128 26 -175 43 -187 68 -24 53 -33 80 -28 89 4 5 2 9 -2
9 -12 0 -53 86 -53 110 0 10 8 26 17 36 9 9 18 25 18 35 1 11 11 30 23 42 12
13 22 27 22 32 0 5 7 16 15 25 14 15 10 22 -41 75 l-55 59 -37 -20 c-20 -10
-43 -25 -50 -31 -7 -7 -19 -13 -26 -13 -8 0 -19 -6 -25 -14 -21 -25 -70 -30
-112 -11 -21 10 -36 21 -34 25 3 4 -1 7 -8 7 -24 -2 -87 15 -87 24 0 5 -3 8
-7 8 -30 -5 -48 18 -56 70 -1 9 -5 21 -8 26 -4 6 -9 28 -13 50 -14 78 -9 75
-96 75 -52 0 -81 -4 -87 -12z m220 -556 c48 -22 93 -59 89 -74 -1 -5 2 -7 7
-4 11 7 33 -18 24 -27 -3 -4 -1 -7 6 -7 19 0 61 -106 64 -163 2 -29 -2 -71 -9
-94 -7 -24 -10 -43 -8 -43 7 0 -46 -83 -69 -107 -11 -12 -24 -20 -29 -17 -5 3
-7 0 -6 -8 2 -7 -5 -12 -14 -12 -10 1 -15 -2 -12 -7 3 -5 -16 -19 -42 -30 -40
-18 -69 -24 -149 -31 -15 -1 -79 10 -101 18 -29 11 -125 76 -120 81 3 3 -6 15
-19 27 -13 11 -26 28 -27 36 -2 8 -9 21 -16 29 -7 7 -11 20 -8 28 3 8 2 11 -4
8 -5 -3 -9 3 -9 12 0 10 -3 43 -5 73 -6 58 16 160 34 160 6 0 10 8 10 18 0 15
43 67 84 100 28 23 103 52 148 58 24 4 44 7 46 9 7 6 97 -16 135 -33z"/>
<path d="M1550 1926 c0 -2 7 -7 16 -10 8 -3 12 -2 9 4 -6 10 -25 14 -25 6z"/>
<path d="M3120 361 c0 -4 -22 -17 -48 -28 l-48 -20 -19 -87 c-10 -48 -16 -89
-13 -91 5 -5 288 -8 293 -3 2 2 5 30 6 63 l3 60 -70 43 c-38 23 -77 49 -86 57
-10 8 -18 11 -18 6z"/>
</g>
</svg>
